<?xml version="1.0" encoding="UTF-8" standalone="no"?>
<!-- Generator: Adobe Illustrator 9.0, SVG Export Plug-In  -->
<svg
   xmlns:dc="http://purl.org/dc/elements/1.1/"
   xmlns:cc="http://web.resource.org/cc/"
   xmlns:rdf="http://www.w3.org/1999/02/22-rdf-syntax-ns#"
   xmlns:svg="http://www.w3.org/2000/svg"
   xmlns="http://www.w3.org/2000/svg"
   xmlns:xlink="http://www.w3.org/1999/xlink"
   xmlns:sodipodi="http://sodipodi.sourceforge.net/DTD/sodipodi-0.dtd"
   xmlns:inkscape="http://www.inkscape.org/namespaces/inkscape"
   width="1115.1312"
   height="1119.6462"
   viewBox="0 0 508.104 383.717"
   xml:space="preserve"
   id="svg2"
   sodipodi:version="0.32"
   inkscape:version="0.45.1"
   sodipodi:docname="gnometris.svg"
   inkscape:output_extension="org.inkscape.output.svg.inkscape"
   sodipodi:docbase="/home/andreas/gnome/gnome-games/gnometris"
   version="1.0"><metadata
   id="metadata36"><rdf:RDF><cc:Work
       rdf:about=""><dc:format>image/svg+xml</dc:format><dc:type
         rdf:resource="http://purl.org/dc/dcmitype/StillImage" /></cc:Work></rdf:RDF></metadata><defs
   id="defs34"><linearGradient
     id="linearGradient3155"><stop
       style="stop-color:#000000;stop-opacity:0.79215688;"
       offset="0"
       id="stop3157" /><stop
       id="stop3139"
       offset="0.30351114"
       style="stop-color:#49050c;stop-opacity:0.78431374;" /><stop
       style="stop-color:#6e0712;stop-opacity:0.78431374;"
       offset="0.59596848"
       id="stop3141" /><stop
       id="stop3160"
       offset="0.76073319"
       style="stop-color:#b20c1d;stop-opacity:0.78431374;" /><stop
       style="stop-color:#ffc74c;stop-opacity:0.78431374;"
       offset="1"
       id="stop3159" /></linearGradient><linearGradient
     inkscape:collect="always"
     xlink:href="#linearGradient3155"
     id="linearGradient3179"
     x1="-0.0026445899"
     y1="59.130001"
     x2="96.212547"
     y2="59.130001"
     gradientUnits="userSpaceOnUse" /><linearGradient
     inkscape:collect="always"
     xlink:href="#linearGradient3155"
     id="linearGradient3157"
     x1="-447.72491"
     y1="254.75334"
     x2="64.750626"
     y2="254.75334"
     gradientUnits="userSpaceOnUse"
     gradientTransform="matrix(1.0090987,0,0,1.0037024,-0.5801233,-3.6428524e-2)" /><linearGradient
     gradientTransform="matrix(7.509535,0,0,7.509535,-3.972464e-3,-133.4286)"
     gradientUnits="userSpaceOnUse"
     y2="26.225924"
     x2="76.798752"
     y1="14.882939"
     x1="31.784821"
     id="linearGradient2229"
     xlink:href="#linearGradient1334"
     inkscape:collect="always" /><linearGradient
     gradientTransform="matrix(7.509535,0,0,7.509535,-3.972464e-3,-133.4286)"
     gradientUnits="userSpaceOnUse"
     y2="31.877295"
     x2="45.43124"
     y1="22.382998"
     x1="1.0448723"
     id="linearGradient2227"
     xlink:href="#linearGradient1334"
     inkscape:collect="always" /><linearGradient
     gradientTransform="matrix(7.509535,0,0,7.509535,-3.972464e-3,-133.4286)"
     gradientUnits="userSpaceOnUse"
     y2="31.877295"
     x2="45.43124"
     y1="16.549366"
     x1="3.5197463"
     id="linearGradient1340"
     xlink:href="#linearGradient1334"
     inkscape:collect="always" /><radialGradient
     r="153.39676"
     fy="7.7861371"
     fx="191.41389"
     cy="7.7861371"
     cx="191.41389"
     gradientTransform="matrix(8.716285e-6,-0.665592,0.957576,0,178.4903,133.0866)"
     gradientUnits="userSpaceOnUse"
     id="radialGradient4071"
     xlink:href="#linearGradient4187"
     inkscape:collect="always" /><linearGradient
     id="linearGradient4187"
     inkscape:collect="always"><stop
       id="stop4189"
       offset="0"
       style="stop-color:#000000;stop-opacity:1;" /><stop
       id="stop4191"
       offset="1"
       style="stop-color:#000000;stop-opacity:0;" /></linearGradient><linearGradient
     id="linearGradient1334"><stop
       id="stop1336"
       offset="0"
       style="stop-color:#ffffff;stop-opacity:1;" /><stop
       style="stop-color:#ffffff;stop-opacity:0;"
       offset="0.25"
       id="stop1346" /><stop
       style="stop-color:#ffffff;stop-opacity:1;"
       offset="0.3448838"
       id="stop1342" /><stop
       id="stop1344"
       offset="0.86309522"
       style="stop-color:#ffffff;stop-opacity:0;" /><stop
       id="stop1338"
       offset="1"
       style="stop-color:#ffffff;stop-opacity:1;" /></linearGradient></defs><sodipodi:namedview
   inkscape:window-height="975"
   inkscape:window-width="1280"
   inkscape:pageshadow="2"
   inkscape:pageopacity="0.98039216"
   guidetolerance="10.0"
   gridtolerance="10.0"
   objecttolerance="10.0"
   borderopacity="1.0"
   bordercolor="#666666"
   pagecolor="#000000"
   id="base"
   width="635.13px"
   height="479.64627px"
   inkscape:zoom="0.49037112"
   inkscape:cx="584.81546"
   inkscape:cy="666.40379"
   inkscape:window-x="0"
   inkscape:window-y="0"
   inkscape:current-layer="svg2" />
	
<rect
   style="fill:url(#linearGradient3157);fill-opacity:1;fill-rule:evenodd;stroke:#220700;stroke-width:6.71924639;stroke-linecap:butt;stroke-linejoin:miter;stroke-miterlimit:4;stroke-dasharray:none;stroke-opacity:1"
   id="rect2182"
   width="510.40112"
   height="504.47168"
   x="-449.01013"
   y="3.4242718"
   transform="matrix(2.4545801e-4,-1,1,2.5035981e-4,0,0)" /><g
   style="overflow:visible"
   id="g3291"
   transform="matrix(1,0,0,0.6963158,62.254656,93.885585)"><g
     style="display:inline"
     inkscape:label="shadows"
     id="layer5"><path
       sodipodi:type="arc"
       style="opacity:0.2;fill:url(#radialGradient4071);fill-opacity:1;stroke:none;stroke-width:2;stroke-miterlimit:4;stroke-dasharray:none;stroke-opacity:1;display:inline"
       id="path4069"
       sodipodi:cx="185.9478"
       sodipodi:cy="5.6829548"
       sodipodi:rx="153.39676"
       sodipodi:ry="110.67352"
       d="M 339.34456 5.6829548 A 153.39676 110.67352 0 1 1  32.551041,5.6829548 A 153.39676 110.67352 0 1 1  339.34456 5.6829548 z"
       transform="matrix(1.052529,0,0,0.447209,3.282688,176.358)" /><path
       id="path3162"
       d="M 278.08466,-121.20017 C 263.10137,-119.5084 251.56651,-106.59544 251.56652,-91.161905 C 251.56653,-74.580724 265.0236,-61.123642 281.60477,-61.123638 C 298.18596,-61.123638 311.64304,-74.580727 311.64304,-91.161905 C 311.64305,-107.74308 298.18596,-121.20017 281.60477,-121.20017 C 280.82754,-121.20017 280.02049,-121.25824 279.25804,-121.20017 C 278.89466,-121.17249 278.44426,-121.24077 278.08466,-121.20017 z M 190.3166,-91.161905 C 176.12009,-89.872902 162.60803,-86.060429 149.95269,-80.836253 L 176.70552,-34.840158 C 183.56999,-37.017509 190.77933,-38.213537 198.29552,-38.59494 C 199.76678,-38.669599 201.26462,-38.59494 202.75432,-38.59494 C 243.96937,-38.59494 278.4194,-9.6502708 287.00228,28.991161 L 340.50794,28.991161 C 336.70745,0.90115204 324.4866,-24.5279 306.48022,-44.696463 C 299.08505,-40.723827 290.58192,-38.59494 281.60477,-38.59494 C 253.41897,-38.59494 230.33397,-60.713304 229.03781,-88.580493 C 220.55499,-90.201241 211.70375,-91.161905 202.75432,-91.161905 C 200.95696,-91.161905 199.13772,-91.229668 197.35683,-91.161905 C 196.7771,-91.139848 196.29198,-91.191071 195.7141,-91.161905 C 195.16964,-91.134428 194.61444,-91.195693 194.07139,-91.161905 C 193.54532,-91.129175 192.95335,-91.200697 192.42867,-91.161905 C 192.37027,-91.157589 192.25261,-91.163261 192.194,-91.161905 C 191.95898,-91.164866 191.48997,-91.160226 191.25529,-91.161905 C 191.19681,-91.160072 191.07886,-91.166865 191.02062,-91.161905 C 190.79495,-91.142691 190.54195,-91.182368 190.3166,-91.161905 z M 117.56769,-62.062333 C 96.001797,-45.271102 79.627237,-22.143889 70.867561,4.3503949 C 84.704249,13.82231 93.865609,29.742764 93.865609,47.765077 C 93.865609,65.787383 84.704249,81.707852 70.867561,91.179756 C 79.624317,117.68049 95.994273,140.81787 117.56769,157.59249 L 144.32051,111.36172 C 127.17188,95.578465 116.39431,72.885426 116.39431,47.765077 C 116.39431,22.653791 127.19271,-0.0090228539 144.32051,-15.831567 L 117.56769,-62.062333 z M 37.778535,17.726811 C 22.79524,19.418566 11.260378,32.33155 11.260378,47.765077 C 11.260378,64.346259 24.717463,77.803336 41.298645,77.803344 C 57.879822,77.803344 71.336907,64.346259 71.336911,47.765077 C 71.336911,31.183893 57.879822,17.726811 41.298645,17.726811 C 40.521402,17.726818 39.714355,17.668739 38.951905,17.726811 C 38.58855,17.754482 38.138133,17.686204 37.778535,17.726811 z M 287.00228,66.538993 C 278.41943,105.18042 243.96937,134.12509 202.75432,134.12509 C 193.62982,134.12513 184.94165,132.74684 176.70552,130.13564 L 149.95269,176.13173 C 166.24965,182.85967 184.03218,186.69207 202.75432,186.69207 C 211.70374,186.69211 220.55499,185.7314 229.03781,184.11065 C 230.34451,157.41301 251.73042,135.81216 278.31933,134.12509 C 279.43508,134.05433 280.47131,134.12509 281.60477,134.12509 C 290.58193,134.12511 299.08504,136.25398 306.48022,140.22662 C 324.48663,120.05807 336.70745,94.629021 340.50794,66.538993 L 287.00228,66.538993 z M 278.08466,156.65379 C 263.10137,158.34555 251.56651,171.25853 251.56652,186.69207 C 251.56653,203.27324 265.0236,216.73034 281.60477,216.73032 C 298.18596,216.73034 311.64304,203.27323 311.64304,186.69207 C 311.64305,170.11089 298.18596,156.6538 281.60477,156.65379 C 280.82754,156.6538 280.02049,156.59572 279.25804,156.65379 C 278.89466,156.68147 278.44426,156.61319 278.08466,156.65379 z "
       style="opacity:0.2;fill:#000000;fill-opacity:1;stroke:#000000;stroke-width:7.50956726;stroke-miterlimit:4;stroke-dasharray:none;stroke-opacity:1;display:inline" /></g><g
     style="display:inline"
     inkscape:label="Main shape"
     id="layer3"><g
       style="opacity:1"
       transform="matrix(1.00053,0,0,1.00053,-3.972875e-3,-6.691819)"
       id="g11118"><path
         sodipodi:type="arc"
         style="fill:#ff6309;fill-opacity:1;stroke:#cc4a00;stroke-width:8.4917717;stroke-miterlimit:4;stroke-dasharray:none;stroke-opacity:1;display:inline"
         id="path2313"
         sodipodi:cx="41.351189"
         sodipodi:cy="46.856956"
         sodipodi:rx="33.967049"
         sodipodi:ry="33.967049"
         d="M 75.318237 46.856956 A 33.967049 33.967049 0 1 1  7.38414,46.856956 A 33.967049 33.967049 0 1 1  75.318237 46.856956 z"
         transform="matrix(0.883863,0,0,0.883863,4.731769,5.481332)" /><path
         style="fill:#ff6309;fill-opacity:1;stroke:#cc4a00;stroke-width:1.00000012;stroke-linejoin:round;stroke-miterlimit:4;stroke-dasharray:none;stroke-opacity:1;display:inline"
         d="M 25.625,5.5 C 23.633818,5.6472149 21.735947,6.1454934 19.96875,6.875 L 23.53125,13 C 24.445343,12.710057 25.405372,12.550789 26.40625,12.5 C 26.602168,12.490058 26.801626,12.5 27,12.5 C 32.488317,12.5 37.075828,16.354393 38.21875,21.5 L 45.34375,21.5 C 44.837665,17.75945 43.210282,14.373205 40.8125,11.6875 C 39.827738,12.216508 38.695425,12.5 37.5,12.5 C 33.746694,12.5 30.672601,9.5546271 30.5,5.84375 C 29.370404,5.6279262 28.191731,5.5 27,5.5 C 26.760657,5.5000004 26.518398,5.4909766 26.28125,5.5 C 26.204053,5.5029375 26.139452,5.4961163 26.0625,5.5 C 25.989997,5.5036593 25.916063,5.4955008 25.84375,5.5 C 25.773697,5.5043586 25.694866,5.4948346 25.625,5.5 z "
         transform="matrix(7.505562,0,0,7.505562,0,-133.237)"
         id="path2338" /></g><g
       transform="matrix(1.00053,0,0,1.00053,-3.972464e-3,-6.691819)"
       id="g11122"><path
         style="fill:#ffb515;fill-opacity:1;stroke:#d89400;stroke-width:1.00000012;stroke-linejoin:round;stroke-miterlimit:4;stroke-dasharray:none;stroke-opacity:1;display:inline"
         d="M 15.65625,9.375 C 12.784473,11.61097 10.603964,14.690693 9.4375,18.21875 C 11.280034,19.480058 12.5,21.600095 12.5,24 C 12.5,26.399904 11.280034,28.519943 9.4375,29.78125 C 10.603576,33.310165 12.783471,36.391241 15.65625,38.625 L 19.21875,32.46875 C 16.935186,30.367004 15.5,27.3451 15.5,24 C 15.5,20.656107 16.937962,17.638227 19.21875,15.53125 L 15.65625,9.375 z "
         transform="matrix(7.505562,0,0,7.505562,0,-133.237)"
         id="path2241" /><path
         sodipodi:type="arc"
         style="fill:#ffb515;fill-opacity:1;stroke:#d89400;stroke-width:8.4917717;stroke-miterlimit:4;stroke-dasharray:none;stroke-opacity:1;display:inline"
         id="path2317"
         sodipodi:cx="41.351189"
         sodipodi:cy="46.856956"
         sodipodi:rx="33.967049"
         sodipodi:ry="33.967049"
         d="M 75.318237 46.856956 A 33.967049 33.967049 0 1 1  7.38414,46.856956 A 33.967049 33.967049 0 1 1  75.318237 46.856956 z"
         transform="matrix(0.883863,0,0,0.883863,244.9098,144.3342)" /></g><g
       transform="matrix(1.00053,0,0,1.00053,-3.972464e-3,-6.691819)"
       id="g11114"><path
         sodipodi:type="arc"
         style="fill:#c90016;fill-opacity:1;stroke:#8c000f;stroke-width:8.4917717;stroke-miterlimit:4;stroke-dasharray:none;stroke-opacity:1;display:inline"
         id="path2315"
         sodipodi:cx="41.351189"
         sodipodi:cy="46.856956"
         sodipodi:rx="33.967049"
         sodipodi:ry="33.967049"
         d="M 75.318237 46.856956 A 33.967049 33.967049 0 1 1  7.38414,46.856956 A 33.967049 33.967049 0 1 1  75.318237 46.856956 z"
         transform="matrix(0.883863,0,0,0.883863,244.9098,-133.3715)" /><path
         style="fill:#c90016;fill-opacity:1;stroke:#8c000f;stroke-width:1.00000012;stroke-linejoin:round;stroke-miterlimit:4;stroke-dasharray:none;stroke-opacity:1;display:inline"
         d="M 38.21875,26.5 C 37.075831,31.645606 32.488317,35.5 27,35.5 C 25.784953,35.500003 24.627998,35.316465 23.53125,34.96875 L 19.96875,41.09375 C 22.138902,41.989661 24.506903,42.5 27,42.5 C 28.19173,42.500002 29.370404,42.372074 30.5,42.15625 C 30.674004,38.601115 33.521841,35.724655 37.0625,35.5 C 37.211074,35.490575 37.349065,35.500001 37.5,35.5 C 38.695426,35.500001 39.827737,35.783492 40.8125,36.3125 C 43.210285,33.626796 44.837665,30.240551 45.34375,26.5 L 38.21875,26.5 z "
         transform="matrix(7.505562,0,0,7.505562,0,-133.237)"
         id="path2334" /></g></g><g
     style="display:inline"
     inkscape:label="face"
     id="layer1"><path
       sodipodi:nodetypes="ccscccscccsssssc"
       id="path1328"
       d="M 116.62852,-63.730631 C 97.971484,-48.205354 83.54834,-27.724715 75.326064,-4.3583597 C 88.779612,5.9351875 97.620002,22.008076 97.620002,40.229517 C 97.620002,58.450954 88.779612,74.52385 75.326064,84.817389 C 83.544406,108.19019 97.969148,128.67722 116.62852,144.18966 L 139.62648,104.29525 C 123.03121,87.946379 112.63908,65.321724 112.63908,40.229517 C 112.63908,15.13574 123.04549,-7.4584 139.62648,-23.836217 L 116.62852,-63.730631 z M 278.5529,152.87256 C 265.4451,154.35117 255.32027,165.60772 255.32027,179.15594 C 255.32027,193.7055 267.0541,205.43931 281.60365,205.43932 C 296.15324,205.43932 307.88702,193.7055 307.88702,179.15594 C 307.88702,164.60637 296.15321,152.87257 281.60365,152.87256 C 280.63944,152.87255 279.86496,152.84413 279.49159,152.87256 C 279.17372,152.89678 278.86749,152.83707 278.5529,152.87256 z "
       style="opacity:0.51764706;fill:url(#linearGradient1340);fill-opacity:1;stroke:none;stroke-width:22.51668739;stroke-miterlimit:4;stroke-dasharray:none;stroke-opacity:1;display:inline" /><path
       sodipodi:nodetypes="cccsscccscssssssssccsssssc"
       id="path1330"
       d="M 190.08117,-94.942146 C 177.98366,-93.785652 166.38837,-90.703932 155.34957,-86.493913 L 178.5822,-46.599499 C 184.89795,-48.339767 191.31442,-49.542624 198.06006,-49.884924 C 199.78666,-49.972544 201.38928,-49.884924 202.75352,-49.884924 C 244.66634,-49.884924 279.79182,-21.134767 289.8172,17.700907 L 336.04779,17.700907 C 331.8956,-6.9844197 321.17086,-29.302554 305.5403,-47.538194 C 298.26421,-44.160682 290.07931,-42.375388 281.60365,-42.375388 C 252.51864,-42.375388 228.42824,-64.480503 225.51679,-92.830087 C 218.07687,-94.110541 210.48856,-94.942146 202.75352,-94.942146 C 200.86178,-94.942136 199.17946,-95.002592 197.59071,-94.942146 C 196.82075,-94.912841 196.21702,-94.942253 195.948,-94.942146 C 194.9946,-94.894022 194.40925,-94.948615 194.30529,-94.942146 C 193.65613,-94.901751 193.16159,-94.928964 192.89725,-94.942146 C 192.82695,-94.947266 192.65735,-94.941755 192.66257,-94.942146 C 192.13851,-94.903402 191.71223,-94.933987 191.48921,-94.942146 C 191.45202,-94.945204 191.27325,-94.938833 191.25453,-94.942146 C 190.86329,-94.908825 190.47141,-94.979443 190.08117,-94.942146 z M 38.247729,13.946139 C 25.139946,15.424759 15.0151,26.681313 15.0151,40.229517 C 15.0151,54.779085 26.748912,66.512887 41.298479,66.512894 C 55.848045,66.512894 67.581853,54.779085 67.581857,40.229517 C 67.581853,25.679947 55.848041,13.946139 41.298479,13.946139 C 40.334217,13.946139 39.559804,13.9177 39.186421,13.946139 C 38.868556,13.970349 38.562315,13.910646 38.247729,13.946139 z "
       style="opacity:0.51764706;fill:url(#linearGradient2227);fill-opacity:1;stroke:none;stroke-width:3.00000024;stroke-linejoin:miter;stroke-miterlimit:4;stroke-dasharray:none;stroke-opacity:1;display:inline" /><path
       sodipodi:nodetypes="cssssssccsccscssccc"
       id="path1332"
       d="M 278.5529,-124.98029 C 265.4478,-123.5022 255.32027,-112.24511 255.32027,-98.696914 C 255.32027,-84.147349 267.05412,-72.413526 281.60365,-72.413533 C 296.15321,-72.413533 307.88703,-84.147349 307.88702,-98.696914 C 307.88702,-113.24647 296.15323,-124.98029 281.60365,-124.98029 C 280.88045,-124.98029 280.14677,-124.98429 279.72627,-124.98029 C 279.66747,-124.97835 279.53826,-124.98385 279.49159,-124.98029 C 279.17372,-124.95608 278.86742,-125.01576 278.5529,-124.98029 z M 289.58253,62.758127 C 279.4666,101.46108 244.57215,130.34394 202.75352,130.34396 C 194.39567,130.34397 186.48121,128.71218 178.81687,126.58919 L 155.58424,166.4836 C 170.3176,172.02804 186.09961,175.40118 202.75352,175.40117 C 210.63786,175.40119 218.41237,174.38079 225.98614,173.05444 C 228.97281,146.0613 250.75157,124.56863 278.08355,122.83442 C 279.50371,122.74434 280.62651,122.83443 281.60365,122.83442 C 289.90893,122.83442 297.67324,125.21986 304.83628,128.46657 C 320.69289,110.16829 331.36446,87.635854 335.57844,62.758127 L 289.58253,62.758127 z "
       style="opacity:0.33333333;fill:url(#linearGradient2229);fill-opacity:1;stroke:none;stroke-width:3.00000024;stroke-miterlimit:4;stroke-dasharray:none;stroke-opacity:1;display:inline" /></g><g
     style="display:inline"
     inkscape:label="inner stroke"
     id="layer4"><path
       sodipodi:nodetypes="ccscccscccccccccccccsssssccsssssc"
       id="path2272"
       d="M 116.62852,-63.730631 C 97.971484,-48.205354 83.54834,-27.724715 75.326064,-4.3583597 C 88.779612,5.9351875 97.620002,22.008076 97.620002,40.229517 C 97.620002,58.450954 88.779612,74.52385 75.326064,84.817389 C 83.544406,108.19019 97.969148,128.67722 116.62852,144.18966 L 139.62648,104.29525 C 123.03121,87.946379 112.63908,65.321724 112.63908,40.229517 C 112.63908,15.13574 123.04549,-7.4584 139.62648,-23.836217 L 116.62852,-63.730631 z M 114.75113,-52.231653 L 130.23955,-25.009584 C 115.40036,-8.49355 105.9798,13.025023 105.12954,36.70942 C 104.1945,19.486936 96.215035,4.006982 84.243642,-6.9397605 C 91.104151,-24.178954 101.60939,-39.619859 114.75113,-52.231653 z M 105.12954,43.749612 C 105.97779,67.432496 115.37733,88.96284 130.23955,105.46862 L 114.75113,132.69068 C 101.61717,120.08531 91.09655,104.64197 84.243642,87.39879 C 96.223956,76.451504 104.19207,60.974294 105.12954,43.749612 z M 278.5529,152.87256 C 265.4451,154.35117 255.32027,165.60772 255.32027,179.15594 C 255.32027,193.7055 267.0541,205.43931 281.60365,205.43932 C 296.15324,205.43932 307.88702,193.7055 307.88702,179.15594 C 307.88702,164.60637 296.15321,152.87257 281.60365,152.87256 C 280.63944,152.87255 279.86496,152.84413 279.49159,152.87256 C 279.17372,152.89678 278.86749,152.83707 278.5529,152.87256 z M 278.78757,160.3821 C 279.23168,160.31586 279.74183,160.41666 280.19561,160.3821 C 280.45413,160.38606 280.93454,160.38209 281.60365,160.3821 C 292.09012,160.3821 300.37748,168.66945 300.37749,179.15594 C 300.37749,189.64239 292.09014,197.92978 281.60365,197.92978 C 271.11721,197.92978 262.82981,189.6424 262.82981,179.15594 C 262.8298,169.61291 269.75739,161.72904 278.78757,160.3821 z "
       style="opacity:0.06499999;fill:#ffffff;fill-opacity:1;stroke:none;stroke-width:22.51668739;stroke-miterlimit:4;stroke-dasharray:none;stroke-opacity:1;display:inline" /><path
       sodipodi:nodetypes="cccsscccscssssssssccsssssssccssccccscccccsssssccsssssc"
       id="path2284"
       d="M 190.08117,-94.942146 C 177.98366,-93.785652 166.38837,-90.703932 155.34957,-86.493913 L 178.5822,-46.599499 C 184.89795,-48.339767 191.31442,-49.542624 198.06006,-49.884924 C 199.78666,-49.972544 201.38928,-49.884924 202.75352,-49.884924 C 244.66634,-49.884924 279.79182,-21.134767 289.8172,17.700907 L 336.04779,17.700907 C 331.8956,-6.9844197 321.17086,-29.302554 305.5403,-47.538194 C 298.26421,-44.160682 290.07931,-42.375388 281.60365,-42.375388 C 252.51864,-42.375388 228.42824,-64.480503 225.51679,-92.830087 C 218.07687,-94.110541 210.48856,-94.942146 202.75352,-94.942146 C 200.86178,-94.942136 199.17946,-95.002592 197.59071,-94.942146 C 196.82075,-94.912841 196.21702,-94.942253 195.948,-94.942146 C 194.9946,-94.894022 194.40925,-94.948615 194.30529,-94.942146 C 193.65613,-94.901751 193.16159,-94.928964 192.89725,-94.942146 C 192.82695,-94.947266 192.65735,-94.941755 192.66257,-94.942146 C 192.13851,-94.903402 191.71223,-94.933987 191.48921,-94.942146 C 191.45202,-94.945204 191.27325,-94.938833 191.25453,-94.942146 C 190.86329,-94.908825 190.47141,-94.979443 190.08117,-94.942146 z M 191.25453,-87.432608 C 191.31604,-87.431123 191.37242,-87.429445 191.48921,-87.432608 C 191.66827,-87.449706 191.77904,-87.417321 191.95855,-87.432608 C 192.30056,-87.449323 192.81412,-87.391759 193.36659,-87.432608 C 193.69876,-87.442862 194.12966,-87.392475 194.77463,-87.432608 C 195.06551,-87.435914 195.51843,-87.399081 196.18267,-87.432608 C 196.45856,-87.4281 197.08514,-87.404437 197.82538,-87.432608 C 199.02987,-87.478434 200.67302,-87.432601 202.75352,-87.432608 C 208.60263,-87.432608 214.36774,-86.602224 220.11932,-85.789894 C 223.34374,-70.692358 231.32206,-57.232547 242.8826,-48.007538 C 230.66405,-53.881259 217.19352,-57.394459 202.75352,-57.394459 C 201.64017,-57.394459 200.06272,-57.507998 197.82538,-57.394459 C 192.58573,-57.128578 187.42013,-55.863414 182.33697,-54.813057 L 167.08321,-81.331107 C 174.99351,-83.769252 182.93833,-86.59599 191.25453,-87.432608 z M 257.43233,-39.559311 C 264.89001,-36.506182 273.08398,-34.865849 281.60365,-34.865849 C 288.72533,-34.865849 295.5009,-36.445722 302.0202,-38.62062 C 313.30374,-24.451129 321.03531,-7.9209215 325.48751,10.191368 L 294.51066,10.191368 C 287.7495,-10.291523 274.85579,-27.583266 257.43233,-39.559311 z M 38.247729,13.946139 C 25.139946,15.424759 15.0151,26.681313 15.0151,40.229517 C 15.0151,54.779085 26.748912,66.512887 41.298479,66.512894 C 55.848045,66.512894 67.581853,54.779085 67.581857,40.229517 C 67.581853,25.679947 55.848041,13.946139 41.298479,13.946139 C 40.334217,13.946139 39.559804,13.9177 39.186421,13.946139 C 38.868556,13.970349 38.562315,13.910646 38.247729,13.946139 z M 38.951748,21.455675 C 39.250195,21.418561 39.587923,21.478713 39.89044,21.455675 C 40.125755,21.451821 40.629322,21.455675 41.298479,21.455675 C 51.784942,21.455682 60.072318,29.743047 60.072318,40.229517 C 60.072318,50.715983 51.784942,59.003355 41.298479,59.003355 C 30.812007,59.003348 22.524637,50.715983 22.524637,40.229517 C 22.524637,30.530072 29.699897,22.606157 38.951748,21.455675 z "
       style="opacity:0.06499999;fill:#ffffff;fill-opacity:1;stroke:none;stroke-width:3.00000024;stroke-linejoin:miter;stroke-miterlimit:4;stroke-dasharray:none;stroke-opacity:1;display:inline" /><path
       sodipodi:nodetypes="cssssssccsssssccsccscssccccccssccccsccsc"
       id="path2301"
       d="M 278.5529,-124.98029 C 265.4478,-123.5022 255.32027,-112.24511 255.32027,-98.696914 C 255.32027,-84.147349 267.05412,-72.413526 281.60365,-72.413533 C 296.15321,-72.413533 307.88703,-84.147349 307.88702,-98.696914 C 307.88702,-113.24647 296.15323,-124.98029 281.60365,-124.98029 C 280.88045,-124.98029 280.14677,-124.98429 279.72627,-124.98029 C 279.66747,-124.97835 279.53826,-124.98385 279.49159,-124.98029 C 279.17372,-124.95608 278.86742,-125.01576 278.5529,-124.98029 z M 279.25692,-117.47076 C 279.55537,-117.50787 279.8931,-117.44771 280.19561,-117.47076 C 280.43093,-117.4746 280.93448,-117.47076 281.60365,-117.47076 C 292.09013,-117.47076 300.37749,-109.18338 300.37749,-98.696914 C 300.3775,-88.210448 292.09012,-79.923068 281.60365,-79.923068 C 271.11721,-79.923068 262.82981,-88.210452 262.82981,-98.696914 C 262.82981,-108.39636 270.00506,-116.32027 279.25692,-117.47076 z M 289.58253,62.758127 C 279.4666,101.46108 244.57215,130.34394 202.75352,130.34396 C 194.39567,130.34397 186.48121,128.71218 178.81687,126.58919 L 155.58424,166.4836 C 170.3176,172.02804 186.09961,175.40118 202.75352,175.40117 C 210.63786,175.40119 218.41237,174.38079 225.98614,173.05444 C 228.97281,146.0613 250.75157,124.56863 278.08355,122.83442 C 279.50371,122.74434 280.62651,122.83443 281.60365,122.83442 C 289.90893,122.83442 297.67324,125.21986 304.83628,128.46657 C 320.69289,110.16829 331.36446,87.635854 335.57844,62.758127 L 289.58253,62.758127 z M 294.51066,70.267662 L 325.48751,70.267662 C 321.03533,88.379951 313.30374,104.91017 302.0202,119.07965 C 295.5009,116.90477 288.72533,115.32488 281.60365,115.32488 C 280.93912,115.32489 279.64322,115.19617 277.61421,115.32488 C 270.04833,115.80494 262.89531,117.79471 256.25896,120.72236 C 274.2309,108.7431 287.60212,91.197034 294.51066,70.267662 z M 245.464,126.58919 C 232.42333,135.78179 223.59396,150.01179 220.11932,166.24893 C 214.36774,167.06126 208.6026,167.89165 202.75352,167.89164 C 190.125,167.89166 178.12936,165.48986 166.61387,162.02481 L 182.57164,134.80274 C 189.1618,136.20429 195.7511,137.8535 202.75352,137.85349 C 218.28927,137.8535 232.57326,133.35725 245.464,126.58919 z "
       style="opacity:0.06499999;fill:#ffffff;fill-opacity:1;stroke:none;stroke-width:3.00000024;stroke-miterlimit:4;stroke-dasharray:none;stroke-opacity:1;display:inline" /></g></g></svg>